# xmcd
#
# Track frame offsets: 
#        150
#        14589
#        33740
#        66928
#        86900
#        123021
#        146247
#        166479
#
# Disc length: 2422 seconds
#
# Revision: 1
# Processed by: cddbd v1.5.2PL0 Copyright (c) Steve Scherf et al.
# Submitted via: ExactAudioCopyFreeDBPlugin 1.0
#
DISCID=73097408
DTITLE=Eddie Kendricks - Eddie Kendricks
DYEAR=1973
DGENRE=Soul
TTITLE0=Only Room For Two
TTITLE1=Darling Come Back Home
TTITLE2=Each Day I Cry A Little
TTITLE3=Can't Help What I Am
TTITLE4=Keep On Truckin'
TTITLE5=Any Day Now
TTITLE6=Not On The Outside
TTITLE7=Where Do You Go (Baby)
EXTD=
EXTT0=
EXTT1=
EXTT2=
EXTT3=
EXTT4=
EXTT5=
EXTT6=
EXTT7=
PLAYORDER=
